<?xml version="1.0" encoding="utf-8"?>
<!-- Generator: Adobe Illustrator 26.1.0, SVG Export Plug-In . SVG Version: 6.00 Build 0)  -->
<svg version="1.1" id="Layer_1" xmlns="http://www.w3.org/2000/svg" xmlns:xlink="http://www.w3.org/1999/xlink" x="0px" y="0px"
	 viewBox="0 0 850 658.7" style="enable-background:new 0 0 850 658.7;" xml:space="preserve">
<style type="text/css">
	.st0{fill:#FEFEFE;}
</style>
<path id="TouchpointIcon" class="st0" d="M760.7,233.6c-42.7-42.7-85.4-85.5-128.2-128.2c-6.1-6.1-12.5-12-19.3-17.2
	C586.7,67.7,557,55.6,523,58c-37.6,2.6-67.3,21-91.6,48.9c-11.2,12.9-8.8,12.8-19.8,0.1c-26-30-58.1-48.2-99.3-49.6
	c-36.4,1-68.1,15.4-94.2,40.9c-45.8,44.8-90.9,90.4-136.2,135.7c-10,10-10,15.6,0.1,25.7C190.5,368.4,299.1,477,407.7,585.5
	c11.1,11.1,16.5,11.1,27.5,0.1c108.6-108.6,217.2-217.2,325.8-325.8C771.3,249.5,771.2,244.2,760.7,233.6z M690.9,201.1
	c2.4,3.6,7,5.7,7.9,10c-0.5,2.6-2.2,3.9-3.7,5.4c-45.6,45.7-91.3,91.3-136.9,136.9c-2.4,2.4-4.8,5.4-8.7,3.4
	c-4.8-2.5-10.3-4.7-12.6-10c-1.3-3,2.3-4.9,4.3-6.9c36-36.1,72-72.1,108.1-108.1c10.3-10.3,20.8-20.6,31-31.1
	C684.3,196.5,687.6,196.1,690.9,201.1z M651.6,164.3c1.2,0.6,2.4,1.1,3.5,1.8c12.6,7.3,13.2,11.1,3,21.3
	c-44.7,44.7-89.5,89.4-134.1,134.3c-5.2,5.2-8,5.6-13.6,0.1c-2.4-2.4-24.8-19.4-23.3-47.6c2.1-37.5,19.2-67.1,45.9-92
	C566.2,151.2,611.8,144.5,651.6,164.3z M578,116.8c8.1,0.7,16,2.6,23.7,5.1c1.9,0.6,4.7,1.1,4.2,3.8c-0.5,2.6-3.2,2.2-5.3,2.2
	c-62.7-1.7-116.7,55.4-130.9,104.6c-3,10.4-4.8,20.9-4.5,31.7c0.1,2.2,0.6,5.4-2.5,5.8c-3.1,0.5-3.3-2.8-4-4.9
	c-1.5-4.5-3-8.9-3.9-13.5c-1.2-6.4-2.5-12.9-2.1-16.8c0.7-32.5,13.4-57.3,32.9-78.8C510.2,128.9,540.2,113.6,578,116.8z M445.6,131
	c18.7-23.4,41.3-40.8,71.5-46.2c12.7-2.3,25.5-2,38.2,0.6c2,0.4,4.2,0.5,5.3,2.7c0,2.1-1.6,2.5-3.1,2.8c-4.4,0.6-8.8,0.9-13.2,1.7
	C504,99.9,475,123.8,452,156.3c-1.2,1.7-2.3,3.5-3.5,5.2c-2.1,3-3.8,3.1-5.7-0.4C435.1,147.3,435.4,143.7,445.6,131z M416.3,275.2
	c3.9-3.9,6.7-3.6,10.5,0.2c21.9,22.1,43.9,44.2,66,66c4.4,4.3,4.4,7.2,0,11.5c-21.8,21.5-43.3,43.2-65,64.8
	c-1.8,1.8-3.4,4.1-6.4,4.1c-2.4,0-3.8-1.6-5.2-3.1c-22.2-22.2-44.3-44.4-66.7-66.5c-4-4-3.4-6.7,0.3-10.3
	C372,319.7,394.2,297.5,416.3,275.2z M435,474.4c0.2,2.3-10.2,13.6-12.9,14c-2.7,0.4-14.1-10.5-14.2-13.4c0-2.4,10.8-13.5,13.3-13.6
	C423.5,461.2,434.7,471.9,435,474.4z M287,85.5c6.9-1.7,14-2,21.1-2.1c43,0.6,72.8,23.6,96.1,57.4c1.9,2.7-2.8,21.2-5.6,22.5
	c-3.7,1.7-4.3-2-5.6-3.9c-11.1-16.7-24.3-31.4-40.5-43.3c-18.7-13.7-39.3-22.7-62.7-24.4c-0.8-0.1-1.6-0.1-2.3-0.3
	c-1.8-0.7-4.8,0-5-2.7C282.3,85.8,285.1,85.9,287,85.5z M243.3,121.4c10.2-3.5,20.8-5.1,31.7-5c40.9,0.8,70.5,21.6,93.4,53.6
	c19.4,27.1,27.2,56.8,17.7,89.7c-0.6,2-1.3,4-2,5.9c-0.7,1.9-1,4.7-3.6,4.4c-3.2-0.3-2.6-3.4-2.8-5.6
	c-2.6-56.4-33.1-94.8-79.5-122.5c-16.4-9.8-34.8-14.2-54-14.1c-2.5,0-6.3,1.1-6.9-1.9C236.5,122.2,240.8,122.2,243.3,121.4z
	 M182.8,170.1c10.9-9.3,24.3-13.1,38-15.4c42.4-7.1,75.5,10.2,102.5,41.3c19.5,22.5,35.2,48.2,35.8,83.3
	c-0.9,18.4-15.7,32.2-30.3,46c-2.1,2-4.2,1.6-6.2-0.3c-1.1-1.1-2.2-2.2-3.3-3.3c-45.6-45.6-91.3-91.3-136.9-136.9
	C175.2,177.7,174.9,176.8,182.8,170.1z M144.9,209.4c3.2-4.5,6.5-9.7,11.9-12c2.2-0.9,3.7,1.4,5.2,2.8
	c47.1,47.1,94.2,94.2,141.4,141.4c1.3,1.3,2.7,2.5,2.9,5.2c-2,4.3-6.8,6.2-10.8,9c-2.8,1.9-5.8,2.5-8.5-0.2
	c-1.3-1.3-2.6-2.5-3.9-3.8c-44.5-44.5-89.1-89-133.5-133.7C147.1,215.7,142,213.5,144.9,209.4z M229.9,372.6
	C190.9,333.3,151.7,294,112.3,255c-5.3-5.3-5.7-8.6-0.1-13.9c12.6-12,12.3-12.2,24.7,0.1c41.4,41.4,82.8,82.8,124.2,124.3
	c2,2,5.5,3.7,4.6,6.8c-0.9,3.5-5,3.1-8,3.7c-4.6,0.9-9.3,1.5-13.9,2.2C238.1,379,234,376.6,229.9,372.6z M362.7,482.7
	c-12.7,12.6-9.8,12.7-22.4,0.1c-26.8-26.7-53.6-53.5-80.3-80.3c-1.8-1.8-5-3.3-4.2-6.1c1-3.3,4.2-2.9,7.2-3.3
	c2.1-0.2,4.2-0.5,6.3-0.9c11.9-2,18.2-1.3,26.2,7.2c22,23.3,45.2,45.6,67.9,68.4c2,2,4.5,3.7,5,6.6
	C368.2,478.5,365,480.4,362.7,482.7z M383.7,525c-4.7-2.5-8.7-6.7-11.8-11.4c-2.5-3.8,1.8-5.9,3.9-8.4c0.7-0.8,1.5-1.5,2.2-2.2
	c11-11,13-10.8,22.3,1.7c0.7,1,1.6,2.2,1.6,3.4C402.1,510.9,387,525.2,383.7,525z M390.1,454.8c-3.5,2.5-5.5-1.6-7.6-3.7
	c-22.8-22.7-45.5-45.6-68.4-68.1c-4.7-4.6-4.5-7.7,1-10.8c1.6-0.9,3.2-1.9,4.5-3.1c4.6-4.3,8-3.6,12.4,0.9
	c21.8,22.2,43.9,44.1,65.9,66.2c1.6,1.6,3.7,3,4.2,6.2C399.2,447.2,394.8,451.3,390.1,454.8z M432,553.3c-12,12-9.1,12-21.2,0
	c-8.5-8.4-8.5-8.5,0.1-16.9c12.4-12.1,8.7-12.1,21.1,0.1c2.5,2.5,5.9,4.5,6.7,8.4C437.9,548.8,434.6,550.8,432,553.3z M445.3,435.8
	c21.9-22.1,44-44.1,66-66c2.1-2,4-5.9,7.7-3.4c4.7,3.2,10.5,5.2,13.3,10.6c1.1,2.2-1.4,3.7-2.8,5.2c-23.5,23.5-47,47-70.5,70.5
	c-1.3,1.3-2.5,2.8-5.1,2.9c-4.8-2.9-9-7.2-12.4-12.1C439.1,439.9,443.3,437.9,445.3,435.8z M468.9,516.6c-10,11-9.9,11.1-20.4,0.6
	c-1.7-1.7-3.2-3.4-5-5c-3.3-2.9-3.3-5.6,0-8.5c3.7-3.2,6.4-7.5,11.2-9.8c1.5,1.1,2.8,1.8,3.9,2.9c3.6,3.5,7,7.1,10.6,10.5
	C472.7,510.6,471.9,513.3,468.9,516.6z M584.4,401c-29.3,29.4-58.7,58.7-88,88.1c-3.5,3.6-6.3,3.6-9.8,0
	c-16.2-16.6-15.7-12.5-0.7-27.7c22.4-22.6,45.1-45,67.5-67.7c3.9-4,7.4-5.8,13-3.5c5,2.1,10.5,2.9,16,3.4c2,0.2,4.1,0.7,5,2.6
	C587.2,398.6,585.7,399.8,584.4,401z M724.9,260.5c-37.1,37.2-74.4,74.3-111.4,111.6c-4.4,4.5-8.9,7.2-14.3,5.7
	c-6.8,0-12.4-1.4-18-2.7c-4.7-1.1-5.7-3.3-2.1-7c0.7-0.7,1.5-1.5,2.2-2.2c43.6-43.6,87.3-87.2,130.8-131c5-5,7.9-4.7,12.5,0.2
	C738.9,250.2,739.1,246.2,724.9,260.5z"/>
</svg>
