<?xml version="1.0" encoding="utf-8"?>
<!-- Generator: Adobe Illustrator 26.1.0, SVG Export Plug-In . SVG Version: 6.00 Build 0)  -->
<svg version="1.1" id="Touchpoint-Health_x5F_1x_x5F_white_xA0_Image_00000182522898573180638880000002262223909239869876_"
	 xmlns="http://www.w3.org/2000/svg" xmlns:xlink="http://www.w3.org/1999/xlink" x="0px" y="0px" viewBox="0 0 720 168"
	 style="enable-background:new 0 0 720 168;" xml:space="preserve">
<style type="text/css">
	.st0{fill:#4D7F98;}
	.st1{fill:#1F4E60;}
</style>
<g>
	<g>
		<g>
			<path class="st0" d="M268.1,24.8h-21.9v62.5h-4.9V24.8h-21.9v-4h48.6V24.8z"/>
			<path class="st0" d="M267.1,63.6c0-14.7,9.5-24.5,23.8-24.5c14.1,0,23.7,9.8,23.7,24.5c0,14.8-9.5,24.6-23.7,24.6
				C276.7,88.2,267.1,78.4,267.1,63.6z M309.8,63.6c0-12.4-7.6-20.8-18.9-20.8c-11.4,0-19,8.4-19,20.8c0,12.5,7.6,20.9,19,20.9
				C302.2,84.5,309.8,76.1,309.8,63.6z"/>
			<path class="st0" d="M367.5,87.7c-1.6,0-3.2-0.5-4.4-1.2c-5.5,1.1-12.1,1.7-17.9,1.7c-11.7,0-18.6-6.1-18.6-17.4V40.1h4.5v30.2
				c0,9.1,5.8,14.2,15.7,14.2c4.9,0,10.5-0.6,16.2-1.7V40.1h4.5V87.7z"/>
			<path class="st0" d="M404.6,42.8c-11.9,0-19.8,8.4-19.8,20.8c0,12.5,8,20.9,20,20.9c4.2,0,9.9-1.3,14.3-3.1V85
				c-4,1.9-10.2,3.2-15.6,3.2c-14,0-23.5-9.8-23.5-24.6c0-14.7,9.4-24.5,23.5-24.5c5,0,11,1.2,14.7,2.9v3.5
				C414.3,43.9,408.8,42.8,404.6,42.8z"/>
			<path class="st0" d="M472.8,56.5v30.8h-4.5V57.1c0-9.1-5.9-14.2-15.8-14.2c-5.2,0-11.2,0.7-17.2,1.9v42.6h-4.5V17.9l4.5-1.3V41
				c5.7-1.2,12.6-1.9,18.8-1.9C465.9,39.2,472.8,45.3,472.8,56.5z"/>
		</g>
		<g>
			<path class="st1" d="M382.8,104.2v45.1h-3.3v-21.5h-29.3v21.5h-3.3v-45.1h3.3V125h29.3v-20.9H382.8z"/>
			<path class="st1" d="M424.5,146.6v2.7h-27.4v-45.1h26.8v2.7h-23.5v17.9h22.1v2.7h-22.1v19H424.5z"/>
			<path class="st1" d="M463.5,136.7h-25.2c-1.8,4.3-3.5,8.5-4.9,12.6h-3.5c5.9-15.3,13.8-32.3,20.9-45.8h0.5
				c7,13.4,15,30.5,20.9,45.8h-3.5C467,145.2,465.4,140.9,463.5,136.7z M439.5,133.9h22.9c-3.7-8.7-7.7-17.3-11.5-25
				C447.2,116.6,443.1,125.3,439.5,133.9z"/>
			<path class="st1" d="M505.2,146.6v2.7h-25.1v-45.1h3.3v42.4H505.2z"/>
			<path class="st1" d="M534,106.9h-14.8v42.4h-3.3v-42.4H501v-2.7H534V106.9z"/>
			<path class="st1" d="M578.3,104.2v45.1H575v-21.5h-29.3v21.5h-3.3v-45.1h3.3V125H575v-20.9H578.3z"/>
		</g>
		<g>
			<path class="st1" d="M536,41.3c0,13.2-9,21.9-22.5,21.9h-16.7V87h-8.3V19.7h25.1C527,19.7,536,28.3,536,41.3z M527.4,41.6
				c0-9.1-5.9-15.1-14.8-15.1h-15.8v29.9h15.8C521.5,56.4,527.4,50.5,527.4,41.6z"/>
			<path class="st1" d="M541.6,62.8c0-15,10-25,24.9-25c14.9,0,24.9,10,24.9,25c0,15.1-10,25.1-24.9,25.1
				C551.6,87.9,541.6,77.9,541.6,62.8z M583.3,62.8c0-11.2-6.7-18.7-16.7-18.7c-10.1,0-16.7,7.6-16.7,18.7
				c0,11.3,6.6,18.8,16.7,18.8C576.6,81.6,583.3,74.1,583.3,62.8z"/>
			<path class="st1" d="M601.3,23.7c0-2.9,2.1-5,5-5s5.1,2.1,5.1,5s-2.2,5-5.1,5S601.3,26.6,601.3,23.7z M610.3,38.7V87h-7.8V38.7
				H610.3z"/>
			<path class="st1" d="M668.9,56v31h-7.8V56.8c0-8.3-5.1-12.7-13.9-12.7c-4.7,0-9.6,1-14.9,2.6V87h-7.8V38.3c3.1,0,5.6,0.7,7.7,2.2
				c5.7-1.7,12.2-2.7,18.1-2.7C662,37.8,668.9,44,668.9,56z"/>
			<path class="st1" d="M707.7,81v5.8c-3,0.8-6.2,1.1-9.3,1.1c-8.6,0-14.4-5.9-14.4-14.8V44.4h-7v-5.7h7V26.8l7.8-2.2v14.1h15.4v5.7
				h-15.4v27.4c0,5.9,3.5,9.8,8.9,9.8C703.1,81.6,705.4,81.4,707.7,81z"/>
		</g>
	</g>
	<path id="TouchpointIcon" class="st1" d="M196.8,55.3c-11.8-11.8-23.6-23.6-35.4-35.4c-1.7-1.7-3.5-3.3-5.3-4.7
		c-7.3-5.7-15.5-9-24.9-8.3c-10.4,0.7-18.6,5.8-25.3,13.5c-3.1,3.6-2.4,3.5-5.5,0C93.2,12.1,84.4,7.1,73,6.7C63,6.9,54.2,10.9,47,18
		c-12.6,12.4-25.1,25-37.6,37.5c-2.8,2.8-2.8,4.3,0,7.1c29.9,30,59.9,60,89.9,89.9c3.1,3.1,4.6,3.1,7.6,0c30-30,60-60,89.9-89.9
		C199.7,59.7,199.7,58.2,196.8,55.3z M177.5,46.3c0.7,1,1.9,1.6,2.2,2.8c-0.1,0.7-0.6,1.1-1,1.5c-12.6,12.6-25.2,25.2-37.8,37.8
		c-0.7,0.7-1.3,1.5-2.4,0.9c-1.3-0.7-2.8-1.3-3.5-2.8c-0.4-0.8,0.6-1.4,1.2-1.9c9.9-10,19.9-19.9,29.8-29.8c2.8-2.8,5.7-5.7,8.6-8.6
		C175.7,45.1,176.6,44.9,177.5,46.3z M166.7,36.2c0.3,0.2,0.7,0.3,1,0.5c3.5,2,3.6,3.1,0.8,5.9c-12.3,12.3-24.7,24.7-37,37.1
		c-1.4,1.4-2.2,1.5-3.8,0c-0.7-0.7-6.8-5.4-6.4-13.1c0.6-10.4,5.3-18.5,12.7-25.4C143.1,32.6,155.7,30.7,166.7,36.2z M146.3,23.1
		c2.2,0.2,4.4,0.7,6.5,1.4c0.5,0.2,1.3,0.3,1.2,1c-0.1,0.7-0.9,0.6-1.5,0.6c-17.3-0.5-32.2,15.3-36.1,28.9c-0.8,2.9-1.3,5.8-1.2,8.7
		c0,0.6,0.2,1.5-0.7,1.6c-0.9,0.1-0.9-0.8-1.1-1.4c-0.4-1.2-0.8-2.5-1.1-3.7c-0.3-1.8-0.7-3.6-0.6-4.6c0.2-9,3.7-15.8,9.1-21.8
		C127.6,26.4,135.9,22.2,146.3,23.1z M109.8,27c5.2-6.5,11.4-11.3,19.7-12.8c3.5-0.6,7-0.6,10.5,0.2c0.6,0.1,1.2,0.1,1.5,0.7
		c0,0.6-0.4,0.7-0.9,0.8c-1.2,0.2-2.4,0.2-3.6,0.5c-11.1,2-19.1,8.6-25.5,17.6c-0.3,0.5-0.6,1-1,1.4c-0.6,0.8-1,0.9-1.6-0.1
		C106.9,31.5,107,30.5,109.8,27z M101.7,66.8c1.1-1.1,1.8-1,2.9,0.1c6,6.1,12.1,12.2,18.2,18.2c1.2,1.2,1.2,2,0,3.2
		c-6,5.9-12,11.9-17.9,17.9c-0.5,0.5-0.9,1.1-1.8,1.1c-0.7,0-1-0.4-1.4-0.9c-6.1-6.1-12.2-12.3-18.4-18.4c-1.1-1.1-0.9-1.8,0.1-2.8
		C89.5,79.1,95.6,72.9,101.7,66.8z M106.9,121.8c0.1,0.6-2.8,3.8-3.6,3.9c-0.7,0.1-3.9-2.9-3.9-3.7c0-0.7,3-3.7,3.7-3.8
		C103.7,118.1,106.8,121.1,106.9,121.8z M66,14.4c1.9-0.5,3.9-0.6,5.8-0.6c11.9,0.2,20.1,6.5,26.5,15.8c0.5,0.7-0.8,5.9-1.5,6.2
		c-1,0.5-1.2-0.6-1.5-1.1c-3.1-4.6-6.7-8.7-11.2-12c-5.2-3.8-10.8-6.3-17.3-6.7c-0.2,0-0.4,0-0.6-0.1c-0.5-0.2-1.3,0-1.4-0.7
		C64.7,14.5,65.5,14.5,66,14.4z M54,24.3c2.8-1,5.7-1.4,8.7-1.4c11.3,0.2,19.5,6,25.8,14.8c5.4,7.5,7.5,15.7,4.9,24.8
		c-0.2,0.6-0.4,1.1-0.6,1.6c-0.2,0.5-0.3,1.3-1,1.2c-0.9-0.1-0.7-0.9-0.8-1.5C90.3,48.2,81.9,37.6,69.1,30
		c-4.5-2.7-9.6-3.9-14.9-3.9c-0.7,0-1.7,0.3-1.9-0.5C52.1,24.6,53.3,24.6,54,24.3z M37.3,37.8c3-2.6,6.7-3.6,10.5-4.3
		c11.7-2,20.8,2.8,28.3,11.4c5.4,6.2,9.7,13.3,9.9,23c-0.2,5.1-4.3,8.9-8.4,12.7c-0.6,0.6-1.2,0.4-1.7-0.1c-0.3-0.3-0.6-0.6-0.9-0.9
		C62.4,67,49.7,54.4,37.2,41.8C35.2,39.9,35.1,39.6,37.3,37.8z M26.8,48.6c0.9-1.2,1.8-2.7,3.3-3.3c0.6-0.2,1,0.4,1.4,0.8
		c13,13,26,26,39,39c0.4,0.4,0.7,0.7,0.8,1.4c-0.6,1.2-1.9,1.7-3,2.5c-0.8,0.5-1.6,0.7-2.3-0.1c-0.4-0.4-0.7-0.7-1.1-1
		C52.7,75.6,40.4,63.4,28.1,51C27.4,50.4,26,49.8,26.8,48.6z M50.3,93.7C39.5,82.8,28.7,72,17.8,61.2c-1.5-1.5-1.6-2.4,0-3.8
		c3.5-3.3,3.4-3.4,6.8,0C36,68.8,47.4,80.3,58.9,91.7c0.6,0.6,1.5,1,1.3,1.9c-0.2,1-1.4,0.9-2.2,1c-1.3,0.2-2.6,0.4-3.8,0.6
		C52.5,95.4,51.4,94.8,50.3,93.7z M86.9,124.1c-3.5,3.5-2.7,3.5-6.2,0c-7.4-7.4-14.8-14.8-22.2-22.2c-0.5-0.5-1.4-0.9-1.2-1.7
		c0.3-0.9,1.2-0.8,2-0.9c0.6-0.1,1.2-0.1,1.7-0.2c3.3-0.6,5-0.4,7.2,2c6.1,6.4,12.5,12.6,18.7,18.9c0.6,0.6,1.2,1,1.4,1.8
		C88.4,122.9,87.6,123.4,86.9,124.1z M92.7,135.7c-1.3-0.7-2.4-1.8-3.3-3.1c-0.7-1,0.5-1.6,1.1-2.3c0.2-0.2,0.4-0.4,0.6-0.6
		c3-3,3.6-3,6.2,0.5c0.2,0.3,0.4,0.6,0.4,0.9C97.8,131.8,93.6,135.8,92.7,135.7z M94.5,116.4c-1,0.7-1.5-0.4-2.1-1
		c-6.3-6.3-12.6-12.6-18.9-18.8c-1.3-1.3-1.2-2.1,0.3-3c0.4-0.2,0.9-0.5,1.2-0.9c1.3-1.2,2.2-1,3.4,0.2c6,6.1,12.1,12.2,18.2,18.3
		c0.4,0.4,1,0.8,1.2,1.7C97,114.3,95.8,115.4,94.5,116.4z M106,143.5c-3.3,3.3-2.5,3.3-5.9,0c-2.3-2.3-2.3-2.3,0-4.7
		c3.4-3.3,2.4-3.3,5.8,0c0.7,0.7,1.6,1.2,1.8,2.3C107.7,142.3,106.8,142.9,106,143.5z M109.7,111.1c6-6.1,12.1-12.2,18.2-18.2
		c0.6-0.6,1.1-1.6,2.1-0.9c1.3,0.9,2.9,1.4,3.7,2.9c0.3,0.6-0.4,1-0.8,1.4c-6.5,6.5-13,13-19.5,19.5c-0.4,0.4-0.7,0.8-1.4,0.8
		c-1.3-0.8-2.5-2-3.4-3.3C108,112.2,109.2,111.7,109.7,111.1z M116.2,133.4c-2.8,3-2.7,3.1-5.6,0.2c-0.5-0.5-0.9-0.9-1.4-1.4
		c-0.9-0.8-0.9-1.5,0-2.3c1-0.9,1.8-2.1,3.1-2.7c0.4,0.3,0.8,0.5,1.1,0.8c1,1,1.9,2,2.9,2.9C117.3,131.8,117.1,132.5,116.2,133.4z
		 M148.1,101.5c-8.1,8.1-16.2,16.2-24.3,24.3c-1,1-1.7,1-2.7,0c-4.5-4.6-4.3-3.5-0.2-7.6c6.2-6.2,12.4-12.4,18.6-18.7
		c1.1-1.1,2-1.6,3.6-1c1.4,0.6,2.9,0.8,4.4,0.9c0.6,0.1,1.1,0.2,1.4,0.7C148.9,100.8,148.5,101.2,148.1,101.5z M186.9,62.7
		c-10.2,10.3-20.5,20.5-30.7,30.8c-1.2,1.2-2.5,2-3.9,1.6c-1.9,0-3.4-0.4-5-0.7c-1.3-0.3-1.6-0.9-0.6-1.9c0.2-0.2,0.4-0.4,0.6-0.6
		c12-12,24.1-24.1,36.1-36.2c1.4-1.4,2.2-1.3,3.5,0.1C190.8,59.9,190.8,58.8,186.9,62.7z"/>
</g>
</svg>
